<?xml version='1.0' encoding='UTF-8' standalone='no'?>
<svg xmlns:xlink="http://www.w3.org/1999/xlink" viewBox="0 0 576 432" xmlns="http://www.w3.org/2000/svg" width="576pt" height="432pt">
 <title>gl2ps_renderer figure</title>
 <desc>
Creator: GL2PS 1.4.0, (C) 1999-2017 C. Geuzaine
For: Octave
CreationDate: Mon Jun  8 08:20:53 2020
</desc>
 <defs/>
 <polygon fill="#ffffff" points="0,0 576,0 576,432 0,432"/>
 <g>
  <polygon shape-rendering="crispEdges" fill="#ffffff" points="0,432 576,432 576,0 0,0"/>
  <clipPath id="cp00576432">
   <polygon points="0,432 576,432 576,0 0,0"/>
  </clipPath>
  <g clip-path="url(#cp00576432)">
   <polygon shape-rendering="crispEdges" fill="#ffffff" points="74.88,178.602 521.28,178.602 521.28,34.1624 74.88,34.1624"/>
   <polyline stroke="#262626" stroke-width="0.5" fill="none" stroke-linecap="butt" stroke-opacity="0.15" stroke-dasharray="16,0" points="74.88,178.602 74.88,34.1624" stroke-linejoin="miter"/>
   <polyline stroke="#262626" stroke-width="0.5" fill="none" stroke-linecap="butt" stroke-opacity="0.15" stroke-dasharray="16,0" points="164.16,178.602 164.16,34.1624" stroke-linejoin="miter"/>
   <polyline stroke="#262626" stroke-width="0.5" fill="none" stroke-linecap="butt" stroke-opacity="0.15" stroke-dasharray="16,0" points="253.44,178.602 253.44,34.1624" stroke-linejoin="miter"/>
   <polyline stroke="#262626" stroke-width="0.5" fill="none" stroke-linecap="butt" stroke-opacity="0.15" stroke-dasharray="16,0" points="342.72,178.602 342.72,34.1624" stroke-linejoin="miter"/>
   <polyline stroke="#262626" stroke-width="0.5" fill="none" stroke-linecap="butt" stroke-opacity="0.15" stroke-dasharray="16,0" points="432,178.602 432,34.1624" stroke-linejoin="miter"/>
   <polyline stroke="#262626" stroke-width="0.5" fill="none" stroke-linecap="butt" stroke-opacity="0.15" stroke-dasharray="16,0" points="521.28,178.602 521.28,34.1624" stroke-linejoin="miter"/>
   <polyline stroke="#262626" stroke-width="0.5" fill="none" stroke-linecap="butt" points="74.88,178.602 74.88,174.125" stroke-linejoin="miter"/>
   <polyline stroke="#262626" stroke-width="0.5" fill="none" stroke-linecap="butt" points="74.88,34.1624 74.88,38.64" stroke-linejoin="miter"/>
   <polyline stroke="#262626" stroke-width="0.5" fill="none" stroke-linecap="butt" points="164.16,178.602 164.16,174.125" stroke-linejoin="miter"/>
   <polyline stroke="#262626" stroke-width="0.5" fill="none" stroke-linecap="butt" points="164.16,34.1624 164.16,38.64" stroke-linejoin="miter"/>
   <polyline stroke="#262626" stroke-width="0.5" fill="none" stroke-linecap="butt" points="253.44,178.602 253.44,174.125" stroke-linejoin="miter"/>
   <polyline stroke="#262626" stroke-width="0.5" fill="none" stroke-linecap="butt" points="253.44,34.1624 253.44,38.64" stroke-linejoin="miter"/>
   <polyline stroke="#262626" stroke-width="0.5" fill="none" stroke-linecap="butt" points="342.72,178.602 342.72,174.125" stroke-linejoin="miter"/>
   <polyline stroke="#262626" stroke-width="0.5" fill="none" stroke-linecap="butt" points="342.72,34.1624 342.72,38.64" stroke-linejoin="miter"/>
   <polyline stroke="#262626" stroke-width="0.5" fill="none" stroke-linecap="butt" points="432,178.602 432,174.125" stroke-linejoin="miter"/>
   <polyline stroke="#262626" stroke-width="0.5" fill="none" stroke-linecap="butt" points="432,34.1624 432,38.64" stroke-linejoin="miter"/>
   <polyline stroke="#262626" stroke-width="0.5" fill="none" stroke-linecap="butt" points="521.28,178.602 521.28,174.125" stroke-linejoin="miter"/>
   <polyline stroke="#262626" stroke-width="0.5" fill="none" stroke-linecap="butt" points="521.28,34.1624 521.28,38.64" stroke-linejoin="miter"/>
   <text font-family="FreeSans" xml:space="preserve" transform="translate(71.88,194.125) rotate(-0,3,-8)" font-weight="normal" font-size="10" font-style="normal">
    <tspan x="0 " fill="rgb(38,38,38)" y="-0">0</tspan>
   </text>
   <text font-family="FreeSans" xml:space="preserve" transform="translate(158.16,194.125) rotate(-0,6,-8)" font-weight="normal" font-size="10" font-style="normal">
    <tspan x="0 6 " fill="rgb(38,38,38)" y="-0">10</tspan>
   </text>
   <text font-family="FreeSans" xml:space="preserve" transform="translate(247.44,194.125) rotate(-0,6,-8)" font-weight="normal" font-size="10" font-style="normal">
    <tspan x="0 6 " fill="rgb(38,38,38)" y="-0">20</tspan>
   </text>
   <text font-family="FreeSans" xml:space="preserve" transform="translate(336.72,194.125) rotate(-0,6,-8)" font-weight="normal" font-size="10" font-style="normal">
    <tspan x="0 6 " fill="rgb(38,38,38)" y="-0">30</tspan>
   </text>
   <text font-family="FreeSans" xml:space="preserve" transform="translate(426,194.125) rotate(-0,6,-8)" font-weight="normal" font-size="10" font-style="normal">
    <tspan x="0 6 " fill="rgb(38,38,38)" y="-0">40</tspan>
   </text>
   <text font-family="FreeSans" xml:space="preserve" transform="translate(515.28,194.125) rotate(-0,6,-8)" font-weight="normal" font-size="10" font-style="normal">
    <tspan x="0 6 " fill="rgb(38,38,38)" y="-0">50</tspan>
   </text>
   <polyline stroke="#262626" stroke-width="0.5" fill="none" stroke-linecap="butt" stroke-opacity="0.15" stroke-dasharray="16,0" points="74.88,34.1624 521.28,34.1624" stroke-linejoin="miter"/>
   <polyline stroke="#262626" stroke-width="0.5" fill="none" stroke-linecap="butt" stroke-opacity="0.15" stroke-dasharray="16,0" points="74.88,58.2357 521.28,58.2357" stroke-linejoin="miter"/>
   <polyline stroke="#262626" stroke-width="0.5" fill="none" stroke-linecap="butt" stroke-opacity="0.15" stroke-dasharray="16,0" points="74.88,82.3091 521.28,82.3091" stroke-linejoin="miter"/>
   <polyline stroke="#262626" stroke-width="0.5" fill="none" stroke-linecap="butt" stroke-opacity="0.15" stroke-dasharray="16,0" points="74.88,106.382 521.28,106.382" stroke-linejoin="miter"/>
   <polyline stroke="#262626" stroke-width="0.5" fill="none" stroke-linecap="butt" stroke-opacity="0.15" stroke-dasharray="16,0" points="74.88,130.456 521.28,130.456" stroke-linejoin="miter"/>
   <polyline stroke="#262626" stroke-width="0.5" fill="none" stroke-linecap="butt" stroke-opacity="0.15" stroke-dasharray="16,0" points="74.88,154.529 521.28,154.529" stroke-linejoin="miter"/>
   <polyline stroke="#262626" stroke-width="0.5" fill="none" stroke-linecap="butt" stroke-opacity="0.15" stroke-dasharray="16,0" points="74.88,178.602 521.28,178.602" stroke-linejoin="miter"/>
   <polyline stroke="#262626" stroke-width="0.5" fill="none" stroke-linecap="butt" points="74.88,34.1624 79.348,34.1624" stroke-linejoin="miter"/>
   <polyline stroke="#262626" stroke-width="0.5" fill="none" stroke-linecap="butt" points="521.28,34.1624 516.812,34.1624" stroke-linejoin="miter"/>
   <polyline stroke="#262626" stroke-width="0.5" fill="none" stroke-linecap="butt" points="74.88,58.2357 79.348,58.2357" stroke-linejoin="miter"/>
   <polyline stroke="#262626" stroke-width="0.5" fill="none" stroke-linecap="butt" points="521.28,58.2357 516.812,58.2357" stroke-linejoin="miter"/>
   <polyline stroke="#262626" stroke-width="0.5" fill="none" stroke-linecap="butt" points="74.88,82.3091 79.348,82.3091" stroke-linejoin="miter"/>
   <polyline stroke="#262626" stroke-width="0.5" fill="none" stroke-linecap="butt" points="521.28,82.3091 516.812,82.3091" stroke-linejoin="miter"/>
   <polyline stroke="#262626" stroke-width="0.5" fill="none" stroke-linecap="butt" points="74.88,106.382 79.348,106.382" stroke-linejoin="miter"/>
   <polyline stroke="#262626" stroke-width="0.5" fill="none" stroke-linecap="butt" points="521.28,106.382 516.812,106.382" stroke-linejoin="miter"/>
   <polyline stroke="#262626" stroke-width="0.5" fill="none" stroke-linecap="butt" points="74.88,130.456 79.348,130.456" stroke-linejoin="miter"/>
   <polyline stroke="#262626" stroke-width="0.5" fill="none" stroke-linecap="butt" points="521.28,130.456 516.812,130.456" stroke-linejoin="miter"/>
   <polyline stroke="#262626" stroke-width="0.5" fill="none" stroke-linecap="butt" points="74.88,154.529 79.348,154.529" stroke-linejoin="miter"/>
   <polyline stroke="#262626" stroke-width="0.5" fill="none" stroke-linecap="butt" points="521.28,154.529 516.812,154.529" stroke-linejoin="miter"/>
   <polyline stroke="#262626" stroke-width="0.5" fill="none" stroke-linecap="butt" points="74.88,178.602 79.348,178.602" stroke-linejoin="miter"/>
   <polyline stroke="#262626" stroke-width="0.5" fill="none" stroke-linecap="butt" points="521.28,178.602 516.812,178.602" stroke-linejoin="miter"/>
   <text font-family="FreeSans" xml:space="preserve" transform="translate(60.8755,38.1624) rotate(-0,9,-4)" font-weight="normal" font-size="10" font-style="normal">
    <tspan x="0 3 " fill="rgb(38,38,38)" y="-0">-5</tspan>
   </text>
   <text font-family="FreeSans" xml:space="preserve" transform="translate(63.8755,62.2357) rotate(-0,6,-4)" font-weight="normal" font-size="10" font-style="normal">
    <tspan x="0 " fill="rgb(38,38,38)" y="-0">0</tspan>
   </text>
   <text font-family="FreeSans" xml:space="preserve" transform="translate(63.8755,86.3091) rotate(-0,6,-4)" font-weight="normal" font-size="10" font-style="normal">
    <tspan x="0 " fill="rgb(38,38,38)" y="-0">5</tspan>
   </text>
   <text font-family="FreeSans" xml:space="preserve" transform="translate(57.8755,110.382) rotate(-0,12,-4)" font-weight="normal" font-size="10" font-style="normal">
    <tspan x="0 6 " fill="rgb(38,38,38)" y="-0">10</tspan>
   </text>
   <text font-family="FreeSans" xml:space="preserve" transform="translate(57.8755,134.456) rotate(-0,12,-4)" font-weight="normal" font-size="10" font-style="normal">
    <tspan x="0 6 " fill="rgb(38,38,38)" y="-0">15</tspan>
   </text>
   <text font-family="FreeSans" xml:space="preserve" transform="translate(57.8755,158.529) rotate(-0,12,-4)" font-weight="normal" font-size="10" font-style="normal">
    <tspan x="0 6 " fill="rgb(38,38,38)" y="-0">20</tspan>
   </text>
   <text font-family="FreeSans" xml:space="preserve" transform="translate(57.8755,182.602) rotate(-0,12,-4)" font-weight="normal" font-size="10" font-style="normal">
    <tspan x="0 6 " fill="rgb(38,38,38)" y="-0">25</tspan>
   </text>
   <polyline stroke="#262626" stroke-width="0.5" fill="none" stroke-linecap="square" stroke-dasharray="16,0" points="74.88,178.602 521.28,178.602" stroke-linejoin="miter"/>
   <polyline stroke="#262626" stroke-width="0.5" fill="none" stroke-linecap="square" stroke-dasharray="16,0" points="74.88,34.1624 521.28,34.1624" stroke-linejoin="miter"/>
   <polyline stroke="#262626" stroke-width="0.5" fill="none" stroke-linecap="square" stroke-dasharray="16,0" points="74.88,178.602 74.88,34.1624" stroke-linejoin="miter"/>
   <polyline stroke="#262626" stroke-width="0.5" fill="none" stroke-linecap="square" stroke-dasharray="16,0" points="521.28,178.602 521.28,34.1624" stroke-linejoin="miter"/>
   <text font-family="FreeSans" xml:space="preserve" transform="translate(253.08,24.1624) rotate(-0,45,0)" font-weight="bold" font-size="11" font-style="normal">
    <tspan x="0 7 14 20 23 30 36 42 45 48 54 57 63 66 72 78 84 " fill="rgb(0,0,0)" y="-2">The Sea, 6.6.2020</tspan>
   </text>
   <text font-family="FreeSans" xml:space="preserve" transform="translate(22.3755,106.382) rotate(-90,30.5,0)" font-weight="normal" font-size="11" font-style="normal">
    <tspan x="0 7 9 15 18 24 27 30 33 42 48 51 57 " fill="rgb(38,38,38)" y="-0">Tiefe / Meter</tspan>
   </text>
   <text font-family="FreeSans" xml:space="preserve" transform="translate(268.58,209.125) rotate(-0,29.5,-10)" font-weight="normal" font-size="11" font-style="normal">
    <tspan x="0 7 13 15 18 21 24 27 36 38 44 50 53 " fill="rgb(38,38,38)" y="-1">Zeit / Minute</tspan>
   </text>
   <polyline stroke="#0071bc" stroke-width="0.5" fill="none" stroke-linecap="butt" points="74.88,58.2357 79.344,76.05 83.808,80.3832 88.272,80.3832 92.736,80.3832 97.2,81.8276 101.664,80.3832 106.128,83.272 110.592,83.272 115.056,81.8276 119.52,85.1979 123.984,84.7164 128.448,89.0496 132.912,96.2716 137.376,105.419 141.84,106.864 146.304,106.864 150.768,106.864 155.232,108.308 159.696,106.864 164.16,106.864 168.624,102.049 173.088,103.975 177.552,108.308 182.016,119.863 186.48,128.53 190.944,132.863 195.408,134.789 199.872,142.011 204.336,143.455 208.8,149.233 213.264,155.011 217.728,155.011 222.192,153.566 226.656,146.344 231.12,143.455 235.584,146.344 240.048,146.344 244.512,143.455 248.976,142.011 253.44,136.233 257.904,131.419 262.368,131.419 266.832,127.085 271.296,128.53 275.76,125.641 280.224,128.53 284.688,128.53 289.152,128.53 293.616,122.752 298.08,122.752 302.544,118.419 307.008,114.086 311.472,111.197 315.936,105.419 320.4,100.605 324.864,96.2716 329.328,94.8272 333.792,90.494 338.256,86.1608 342.72,81.8276 347.184,83.272 351.648,83.272 356.112,86.1608 360.576,87.6052 365.04,90.494 369.504,91.9384 373.968,90.494 378.432,93.3828 382.896,93.3828 387.36,91.9384 391.824,90.494 396.288,87.6052 400.752,91.9384 405.216,93.3828 409.68,90.494 414.144,86.1608 418.608,87.6052 423.072,86.1608 427.536,86.1608 432,83.272 436.464,93.3828 440.928,96.2716 445.392,90.494 449.856,87.6052 454.32,86.1608 458.784,84.7164 463.248,77.4944 467.712,58.2357" stroke-linejoin="round"/>
   <polyline stroke="#d85218" stroke-width="0.5" fill="none" stroke-linecap="butt" stroke-dasharray="1,1,1,1,1,1,1,1,1,1" points="74.88,58.2357 79.344,76.05 83.808,62.5689 88.272,58.2357 92.736,58.2357 97.2,59.6801 101.664,56.7913 106.128,61.1245 110.592,58.2357 115.056,56.7913 119.52,61.606 123.984,57.7542 128.448,62.5689 132.912,65.4577 137.376,67.3836 141.84,59.6801 146.304,58.2357 150.768,58.2357 155.232,59.6801 159.696,56.7913 164.16,58.2357 168.624,53.4211 173.088,60.1616 177.552,62.5689 182.016,69.7909 186.48,66.9021 190.944,62.5689 195.408,60.1616 199.872,65.4577 204.336,59.6801 208.8,64.0133 213.264,64.0133 217.728,58.2357 222.192,56.7913 226.656,51.0137 231.12,55.3469 235.584,61.1245 240.048,58.2357 244.512,55.3469 248.976,56.7913 253.44,52.4581 257.904,53.4211 262.368,58.2357 266.832,53.9025 271.296,59.6801 275.76,55.3469 280.224,61.1245 284.688,58.2357 289.152,58.2357 293.616,52.4581 298.08,58.2357 302.544,53.9025 307.008,53.9025 311.472,55.3469 315.936,52.4581 320.4,53.4211 324.864,53.9025 329.328,56.7913 333.792,53.9025 338.256,53.9025 342.72,53.9025 347.184,59.6801 351.648,58.2357 356.112,61.1245 360.576,59.6801 365.04,61.1245 369.504,59.6801 373.968,56.7913 378.432,61.1245 382.896,58.2357 387.36,56.7913 391.824,56.7913 396.288,55.3469 400.752,62.5689 405.216,59.6801 409.68,55.3469 414.144,53.9025 418.608,59.6801 423.072,56.7913 427.536,58.2357 432,55.3469 436.464,68.3465 440.928,61.1245 445.392,52.4581 449.856,55.3469 454.32,56.7913 458.784,56.7913 463.248,51.0137 467.712,38.9771" stroke-linejoin="round"/>
  </g>
  <clipPath id="cp00576432">
   <polygon points="0,432 576,432 576,0 0,0"/>
  </clipPath>
  <g clip-path="url(#cp00576432)">
   <polygon shape-rendering="crispEdges" fill="#ffffff" points="458.492,167.619 510.297,167.619 510.297,140.178 458.492,140.178"/>
   <polyline stroke="#262626" stroke-width="0.5" fill="none" stroke-linecap="square" stroke-dasharray="16,0" points="458.492,167.619 510.297,167.619" stroke-linejoin="miter"/>
   <polyline stroke="#262626" stroke-width="0.5" fill="none" stroke-linecap="square" stroke-dasharray="16,0" points="458.492,140.178 510.297,140.178" stroke-linejoin="miter"/>
   <polyline stroke="#262626" stroke-width="0.5" fill="none" stroke-linecap="square" stroke-dasharray="16,0" points="458.492,167.619 458.492,140.178" stroke-linejoin="miter"/>
   <polyline stroke="#262626" stroke-width="0.5" fill="none" stroke-linecap="square" stroke-dasharray="16,0" points="510.297,167.619 510.297,140.178" stroke-linejoin="miter"/>
   <text font-family="FreeSans" xml:space="preserve" transform="translate(485.493,151.038) rotate(-0,-0,-4)" font-weight="normal" font-size="9" font-style="normal">
    <tspan x="0 6 8 13 16 " fill="rgb(0,0,0)" y="-0">Tiefe</tspan>
   </text>
   <text font-family="FreeSans" xml:space="preserve" transform="translate(485.493,164.759) rotate(-0,-0,-4)" font-weight="normal" font-size="9" font-style="normal">
    <tspan x="0 6 11 13 16 " fill="rgb(0,0,0)" y="-0">Delta</tspan>
   </text>
   <polyline stroke="#0071bc" stroke-width="0.5" fill="none" stroke-linecap="butt" points="461.695,147.038 482.289,147.038" stroke-linejoin="round"/>
   <polyline stroke="#d85218" stroke-width="0.5" fill="none" stroke-linecap="butt" stroke-dasharray="1,1,1,1,1,1,1,1,1,1" points="461.695,160.759 482.289,160.759" stroke-linejoin="round"/>
  </g>
  <clipPath id="cp00576432">
   <polygon points="0,432 576,432 576,0 0,0"/>
  </clipPath>
  <g clip-path="url(#cp00576432)">
   <polygon shape-rendering="crispEdges" fill="#ffffff" points="74.88,384.48 521.28,384.48 521.28,240.04 74.88,240.04"/>
   <polyline stroke="#262626" stroke-width="0.5" fill="none" stroke-linecap="butt" stroke-opacity="0.15" stroke-dasharray="16,0" points="149.28,384.48 149.28,240.04" stroke-linejoin="miter"/>
   <polyline stroke="#262626" stroke-width="0.5" fill="none" stroke-linecap="butt" stroke-opacity="0.15" stroke-dasharray="16,0" points="223.68,384.48 223.68,240.04" stroke-linejoin="miter"/>
   <polyline stroke="#262626" stroke-width="0.5" fill="none" stroke-linecap="butt" stroke-opacity="0.15" stroke-dasharray="16,0" points="298.08,384.48 298.08,240.04" stroke-linejoin="miter"/>
   <polyline stroke="#262626" stroke-width="0.5" fill="none" stroke-linecap="butt" stroke-opacity="0.15" stroke-dasharray="16,0" points="372.48,384.48 372.48,240.04" stroke-linejoin="miter"/>
   <polyline stroke="#262626" stroke-width="0.5" fill="none" stroke-linecap="butt" stroke-opacity="0.15" stroke-dasharray="16,0" points="446.88,384.48 446.88,240.04" stroke-linejoin="miter"/>
   <polyline stroke="#262626" stroke-width="0.5" fill="none" stroke-linecap="butt" points="149.28,384.48 149.28,380.002" stroke-linejoin="miter"/>
   <polyline stroke="#262626" stroke-width="0.5" fill="none" stroke-linecap="butt" points="149.28,240.04 149.28,244.518" stroke-linejoin="miter"/>
   <polyline stroke="#262626" stroke-width="0.5" fill="none" stroke-linecap="butt" points="223.68,384.48 223.68,380.002" stroke-linejoin="miter"/>
   <polyline stroke="#262626" stroke-width="0.5" fill="none" stroke-linecap="butt" points="223.68,240.04 223.68,244.518" stroke-linejoin="miter"/>
   <polyline stroke="#262626" stroke-width="0.5" fill="none" stroke-linecap="butt" points="298.08,384.48 298.08,380.002" stroke-linejoin="miter"/>
   <polyline stroke="#262626" stroke-width="0.5" fill="none" stroke-linecap="butt" points="298.08,240.04 298.08,244.518" stroke-linejoin="miter"/>
   <polyline stroke="#262626" stroke-width="0.5" fill="none" stroke-linecap="butt" points="372.48,384.48 372.48,380.002" stroke-linejoin="miter"/>
   <polyline stroke="#262626" stroke-width="0.5" fill="none" stroke-linecap="butt" points="372.48,240.04 372.48,244.518" stroke-linejoin="miter"/>
   <polyline stroke="#262626" stroke-width="0.5" fill="none" stroke-linecap="butt" points="446.88,384.48 446.88,380.002" stroke-linejoin="miter"/>
   <polyline stroke="#262626" stroke-width="0.5" fill="none" stroke-linecap="butt" points="446.88,240.04 446.88,244.518" stroke-linejoin="miter"/>
   <text font-family="FreeSans" xml:space="preserve" transform="translate(141.78,400.003) rotate(-0,7.5,-8)" font-weight="normal" font-size="10" font-style="normal">
    <tspan x="0 6 9 " fill="rgb(38,38,38)" y="-0">0-5</tspan>
   </text>
   <text font-family="FreeSans" xml:space="preserve" transform="translate(213.18,400.003) rotate(-0,10.5,-8)" font-weight="normal" font-size="10" font-style="normal">
    <tspan x="0 6 9 15 " fill="rgb(38,38,38)" y="-0">5-10</tspan>
   </text>
   <text font-family="FreeSans" xml:space="preserve" transform="translate(284.58,400.003) rotate(-0,13.5,-8)" font-weight="normal" font-size="10" font-style="normal">
    <tspan x="0 6 12 15 21 " fill="rgb(38,38,38)" y="-0">10-15</tspan>
   </text>
   <text font-family="FreeSans" xml:space="preserve" transform="translate(358.98,400.003) rotate(-0,13.5,-8)" font-weight="normal" font-size="10" font-style="normal">
    <tspan x="0 6 12 15 21 " fill="rgb(38,38,38)" y="-0">15-20</tspan>
   </text>
   <text font-family="FreeSans" xml:space="preserve" transform="translate(433.38,400.003) rotate(-0,13.5,-8)" font-weight="normal" font-size="10" font-style="normal">
    <tspan x="0 6 12 15 21 " fill="rgb(38,38,38)" y="-0">20-25</tspan>
   </text>
   <polyline stroke="#262626" stroke-width="0.5" fill="none" stroke-linecap="butt" stroke-opacity="0.15" stroke-dasharray="16,0" points="74.88,384.48 521.28,384.48" stroke-linejoin="miter"/>
   <polyline stroke="#262626" stroke-width="0.5" fill="none" stroke-linecap="butt" stroke-opacity="0.15" stroke-dasharray="16,0" points="74.88,355.592 521.28,355.592" stroke-linejoin="miter"/>
   <polyline stroke="#262626" stroke-width="0.5" fill="none" stroke-linecap="butt" stroke-opacity="0.15" stroke-dasharray="16,0" points="74.88,326.704 521.28,326.704" stroke-linejoin="miter"/>
   <polyline stroke="#262626" stroke-width="0.5" fill="none" stroke-linecap="butt" stroke-opacity="0.15" stroke-dasharray="16,0" points="74.88,297.816 521.28,297.816" stroke-linejoin="miter"/>
   <polyline stroke="#262626" stroke-width="0.5" fill="none" stroke-linecap="butt" stroke-opacity="0.15" stroke-dasharray="16,0" points="74.88,268.928 521.28,268.928" stroke-linejoin="miter"/>
   <polyline stroke="#262626" stroke-width="0.5" fill="none" stroke-linecap="butt" stroke-opacity="0.15" stroke-dasharray="16,0" points="74.88,240.04 521.28,240.04" stroke-linejoin="miter"/>
   <polyline stroke="#262626" stroke-width="0.5" fill="none" stroke-linecap="butt" points="74.88,384.48 79.348,384.48" stroke-linejoin="miter"/>
   <polyline stroke="#262626" stroke-width="0.5" fill="none" stroke-linecap="butt" points="521.28,384.48 516.812,384.48" stroke-linejoin="miter"/>
   <polyline stroke="#262626" stroke-width="0.5" fill="none" stroke-linecap="butt" points="74.88,355.592 79.348,355.592" stroke-linejoin="miter"/>
   <polyline stroke="#262626" stroke-width="0.5" fill="none" stroke-linecap="butt" points="521.28,355.592 516.812,355.592" stroke-linejoin="miter"/>
   <polyline stroke="#262626" stroke-width="0.5" fill="none" stroke-linecap="butt" points="74.88,326.704 79.348,326.704" stroke-linejoin="miter"/>
   <polyline stroke="#262626" stroke-width="0.5" fill="none" stroke-linecap="butt" points="521.28,326.704 516.812,326.704" stroke-linejoin="miter"/>
   <polyline stroke="#262626" stroke-width="0.5" fill="none" stroke-linecap="butt" points="74.88,297.816 79.348,297.816" stroke-linejoin="miter"/>
   <polyline stroke="#262626" stroke-width="0.5" fill="none" stroke-linecap="butt" points="521.28,297.816 516.812,297.816" stroke-linejoin="miter"/>
   <polyline stroke="#262626" stroke-width="0.5" fill="none" stroke-linecap="butt" points="74.88,268.928 79.348,268.928" stroke-linejoin="miter"/>
   <polyline stroke="#262626" stroke-width="0.5" fill="none" stroke-linecap="butt" points="521.28,268.928 516.812,268.928" stroke-linejoin="miter"/>
   <polyline stroke="#262626" stroke-width="0.5" fill="none" stroke-linecap="butt" points="74.88,240.04 79.348,240.04" stroke-linejoin="miter"/>
   <polyline stroke="#262626" stroke-width="0.5" fill="none" stroke-linecap="butt" points="521.28,240.04 516.812,240.04" stroke-linejoin="miter"/>
   <text font-family="FreeSans" xml:space="preserve" transform="translate(63.8755,388.48) rotate(-0,6,-4)" font-weight="normal" font-size="10" font-style="normal">
    <tspan x="0 " fill="rgb(38,38,38)" y="-0">0</tspan>
   </text>
   <text font-family="FreeSans" xml:space="preserve" transform="translate(63.8755,359.592) rotate(-0,6,-4)" font-weight="normal" font-size="10" font-style="normal">
    <tspan x="0 " fill="rgb(38,38,38)" y="-0">5</tspan>
   </text>
   <text font-family="FreeSans" xml:space="preserve" transform="translate(57.8755,330.704) rotate(-0,12,-4)" font-weight="normal" font-size="10" font-style="normal">
    <tspan x="0 6 " fill="rgb(38,38,38)" y="-0">10</tspan>
   </text>
   <text font-family="FreeSans" xml:space="preserve" transform="translate(57.8755,301.816) rotate(-0,12,-4)" font-weight="normal" font-size="10" font-style="normal">
    <tspan x="0 6 " fill="rgb(38,38,38)" y="-0">15</tspan>
   </text>
   <text font-family="FreeSans" xml:space="preserve" transform="translate(57.8755,272.928) rotate(-0,12,-4)" font-weight="normal" font-size="10" font-style="normal">
    <tspan x="0 6 " fill="rgb(38,38,38)" y="-0">20</tspan>
   </text>
   <text font-family="FreeSans" xml:space="preserve" transform="translate(57.8755,244.04) rotate(-0,12,-4)" font-weight="normal" font-size="10" font-style="normal">
    <tspan x="0 6 " fill="rgb(38,38,38)" y="-0">25</tspan>
   </text>
   <polyline stroke="#262626" stroke-width="0.5" fill="none" stroke-linecap="square" stroke-dasharray="16,0" points="74.88,384.48 521.28,384.48" stroke-linejoin="miter"/>
   <polyline stroke="#262626" stroke-width="0.5" fill="none" stroke-linecap="square" stroke-dasharray="16,0" points="74.88,240.04 521.28,240.04" stroke-linejoin="miter"/>
   <polyline stroke="#262626" stroke-width="0.5" fill="none" stroke-linecap="square" stroke-dasharray="16,0" points="74.88,384.48 74.88,240.04" stroke-linejoin="miter"/>
   <polyline stroke="#262626" stroke-width="0.5" fill="none" stroke-linecap="square" stroke-dasharray="16,0" points="521.28,384.48 521.28,240.04" stroke-linejoin="miter"/>
   <text font-family="FreeSans" xml:space="preserve" transform="translate(17.3755,312.26) rotate(-90,35.5,0)" font-weight="normal" font-size="11" font-style="normal">
    <tspan x="0 8 14 20 26 30 33 36 39 48 50 56 62 65 " fill="rgb(38,38,38)" y="-1">Dauer / Minute</tspan>
   </text>
   <text font-family="FreeSans" xml:space="preserve" transform="translate(141.08,416.003) rotate(-0,157,-11)" font-weight="normal" font-size="11" font-style="normal">
    <tspan x="0 7 9 15 18 24 30 36 42 46 52 54 60 66 69 72 75 84 90 93 99 103 106 109 115 121 127 131 137 140 147 153 159 163 169 175 181 187 190 196 198 204 210 213 216 218 227 230 233 239 242 248 252 257 263 265 267 270 276 282 285 291 297 299 302 308 " fill="rgb(38,38,38)" y="-2">Tiefenbereich / Meter, obere Schranke nicht im Intervall enthalten</tspan>
   </text>
   <polygon shape-rendering="crispEdges" fill="#ffff00" points="179.04,384.48 179.04,352.703 119.52,352.703 119.52,384.48"/>
   <polygon shape-rendering="crispEdges" fill="#ffff00" points="253.44,384.48 253.44,266.039 193.92,266.039 193.92,384.48"/>
   <polygon shape-rendering="crispEdges" fill="#ffff00" points="327.84,384.48 327.84,326.704 268.32,326.704 268.32,384.48"/>
   <polygon shape-rendering="crispEdges" fill="#ffff00" points="402.24,384.48 402.24,341.148 342.72,341.148 342.72,384.48"/>
   <polygon shape-rendering="crispEdges" fill="#ffff00" points="476.64,384.48 476.64,378.702 417.12,378.702 417.12,384.48"/>
   <polyline stroke="#0000ff" stroke-width="0.5" fill="none" stroke-linecap="butt" points="179.04,352.703 119.52,352.703 119.52,384.48 179.04,384.48 179.04,352.703" stroke-linejoin="miter"/>
   <polyline stroke="#0000ff" stroke-width="0.5" fill="none" stroke-linecap="butt" points="253.44,266.039 193.92,266.039 193.92,384.48 253.44,384.48 253.44,266.039" stroke-linejoin="miter"/>
   <polyline stroke="#0000ff" stroke-width="0.5" fill="none" stroke-linecap="butt" points="327.84,326.704 268.32,326.704 268.32,384.48 327.84,384.48 327.84,326.704" stroke-linejoin="miter"/>
   <polyline stroke="#0000ff" stroke-width="0.5" fill="none" stroke-linecap="butt" points="402.24,341.148 342.72,341.148 342.72,384.48 402.24,384.48 402.24,341.148" stroke-linejoin="miter"/>
   <polyline stroke="#0000ff" stroke-width="0.5" fill="none" stroke-linecap="butt" points="476.64,378.702 417.12,378.702 417.12,384.48 476.64,384.48 476.64,378.702" stroke-linejoin="miter"/>
   <polyline stroke="#000000" stroke-width="0.5" fill="none" stroke-linecap="butt" points="74.88,384.48 521.28,384.48" stroke-linejoin="round"/>
   <text font-family="FreeSans" xml:space="preserve" transform="translate(141.78,349.814) rotate(-0,7.5,0)" font-weight="normal" font-size="10" font-style="normal">
    <tspan x="0 6 9 " fill="rgb(0,0,0)" y="-0">5.5</tspan>
   </text>
   <text font-family="FreeSans" xml:space="preserve" transform="translate(213.18,263.15) rotate(-0,10.5,0)" font-weight="normal" font-size="10" font-style="normal">
    <tspan x="0 6 12 15 " fill="rgb(0,0,0)" y="-0">20.5</tspan>
   </text>
   <text font-family="FreeSans" xml:space="preserve" transform="translate(287.58,323.815) rotate(-0,10.5,0)" font-weight="normal" font-size="10" font-style="normal">
    <tspan x="0 6 12 15 " fill="rgb(0,0,0)" y="-0">10.0</tspan>
   </text>
   <text font-family="FreeSans" xml:space="preserve" transform="translate(364.98,338.259) rotate(-0,7.5,0)" font-weight="normal" font-size="10" font-style="normal">
    <tspan x="0 6 9 " fill="rgb(0,0,0)" y="-0">7.5</tspan>
   </text>
   <text font-family="FreeSans" xml:space="preserve" transform="translate(439.38,375.814) rotate(-0,7.5,0)" font-weight="normal" font-size="10" font-style="normal">
    <tspan x="0 6 9 " fill="rgb(0,0,0)" y="-0">1.0</tspan>
   </text>
   <text font-family="FreeSans" xml:space="preserve" transform="translate(76.368,256.595) rotate(-0,-0,-5)" font-weight="normal" font-size="10" font-style="normal">
    <tspan x="0 8 13 18 23 31 34 40 45 50 55 58 61 64 70 76 79 " fill="rgb(0,0,0)" y="-1">Gesamtdauer: 44.5</tspan>
   </text>
  </g>
 </g>
</svg>
